<mxfile host="app.diagrams.net" modified="2023-11-03T16:30:35.544Z" agent="Mozilla/5.0 (Windows NT 10.0; Win64; x64; rv:109.0) Gecko/20100101 Firefox/119.0" etag="q7guLtP2zgQmJvvn11fE" version="22.0.8" type="google">
  <diagram name="Page-1" id="rh3G6_-PAPEWU3ZlsqPR">
    <mxGraphModel grid="1" page="1" gridSize="10" guides="1" tooltips="1" connect="1" arrows="1" fold="1" pageScale="1" pageWidth="850" pageHeight="1100" math="1" shadow="0">
      <root>
        <mxCell id="0" />
        <mxCell id="1" parent="0" />
        <mxCell id="LNBtL-OUFiTYOPxDa9G3-7" value="" style="ellipse;whiteSpace=wrap;html=1;strokeColor=#000000;" vertex="1" parent="1">
          <mxGeometry x="3695" y="220" width="410" height="410" as="geometry" />
        </mxCell>
        <mxCell id="vTeC7MxBw6ICrQF9Bca6-48" value="Oxygen Generator" style="text;whiteSpace=wrap;html=1;fillColor=none;fontSize=50;" vertex="1" parent="1">
          <mxGeometry x="3450" y="220" width="270" height="40" as="geometry" />
        </mxCell>
        <mxCell id="LNBtL-OUFiTYOPxDa9G3-3" value="&lt;font style=&quot;font-size: 14px;&quot;&gt;$$F_{generate\_O_2}$$&lt;/font&gt;" style="ellipse;whiteSpace=wrap;html=1;aspect=fixed;fillColor=#A9C4EB;" vertex="1" parent="1">
          <mxGeometry x="3810" y="500" width="80" height="80" as="geometry" />
        </mxCell>
        <mxCell id="LNBtL-OUFiTYOPxDa9G3-6" value="&lt;font style=&quot;font-size: 10px;&quot;&gt;Aging&lt;/font&gt;" style="ellipse;whiteSpace=wrap;html=1;aspect=fixed;fillColor=#FFFFFF;strokeColor=#F19C99;strokeWidth=2;dashed=1;dashPattern=8 8;" vertex="1" parent="1">
          <mxGeometry x="3720" y="350" width="50" height="50" as="geometry" />
        </mxCell>
        <mxCell id="LNBtL-OUFiTYOPxDa9G3-8" value="&lt;font style=&quot;font-size: 14px;&quot;&gt;$$V_{power}$$&lt;/font&gt;" style="ellipse;whiteSpace=wrap;html=1;aspect=fixed;fillColor=#FFFFFF;strokeColor=#080505;strokeWidth=1;" vertex="1" parent="1">
          <mxGeometry x="3880" y="300" width="80" height="80" as="geometry" />
        </mxCell>
        <mxCell id="LNBtL-OUFiTYOPxDa9G3-11" value="&lt;font style=&quot;font-size: 14px;&quot;&gt;$$H_{mechanism}$$&lt;/font&gt;" style="ellipse;whiteSpace=wrap;html=1;aspect=fixed;fillColor=#CCCCCC;" vertex="1" parent="1">
          <mxGeometry x="3810" y="380" width="80" height="80" as="geometry" />
        </mxCell>
        <mxCell id="LNBtL-OUFiTYOPxDa9G3-13" value="&lt;font style=&quot;font-size: 14px;&quot;&gt;$$F_{generate\_H_2}$$&lt;/font&gt;" style="ellipse;whiteSpace=wrap;html=1;aspect=fixed;fillColor=#A9C4EB;" vertex="1" parent="1">
          <mxGeometry x="3950" y="500" width="80" height="80" as="geometry" />
        </mxCell>
        <mxCell id="LNBtL-OUFiTYOPxDa9G3-17" value="&lt;font style=&quot;font-size: 14px;&quot;&gt;$$V_{H_2O}$$&lt;/font&gt;" style="ellipse;whiteSpace=wrap;html=1;aspect=fixed;fillColor=#FFFFFF;strokeColor=#080505;strokeWidth=1;" vertex="1" parent="1">
          <mxGeometry x="3980" y="335" width="80" height="80" as="geometry" />
        </mxCell>
        <mxCell id="LNBtL-OUFiTYOPxDa9G3-19" value="" style="endArrow=classic;html=1;rounded=0;" edge="1" parent="1" source="LNBtL-OUFiTYOPxDa9G3-6" target="LNBtL-OUFiTYOPxDa9G3-11">
          <mxGeometry width="50" height="50" relative="1" as="geometry">
            <mxPoint x="3770" y="490" as="sourcePoint" />
            <mxPoint x="3820" y="440" as="targetPoint" />
          </mxGeometry>
        </mxCell>
        <mxCell id="LNBtL-OUFiTYOPxDa9G3-20" value="" style="ellipse;whiteSpace=wrap;html=1;aspect=fixed;fillColor=#000000;strokeColor=#000000;" vertex="1" parent="1">
          <mxGeometry x="3940" y="440" width="10" height="10" as="geometry" />
        </mxCell>
        <mxCell id="LNBtL-OUFiTYOPxDa9G3-22" value="" style="endArrow=classic;html=1;rounded=0;" edge="1" parent="1" source="LNBtL-OUFiTYOPxDa9G3-11" target="LNBtL-OUFiTYOPxDa9G3-20">
          <mxGeometry width="50" height="50" relative="1" as="geometry">
            <mxPoint x="3935" y="415.5" as="sourcePoint" />
            <mxPoint x="3980" y="434.5" as="targetPoint" />
          </mxGeometry>
        </mxCell>
        <mxCell id="LNBtL-OUFiTYOPxDa9G3-23" value="" style="endArrow=classic;html=1;rounded=0;" edge="1" parent="1" source="LNBtL-OUFiTYOPxDa9G3-8" target="LNBtL-OUFiTYOPxDa9G3-20">
          <mxGeometry width="50" height="50" relative="1" as="geometry">
            <mxPoint x="3950" y="400" as="sourcePoint" />
            <mxPoint x="3995" y="419" as="targetPoint" />
          </mxGeometry>
        </mxCell>
        <mxCell id="LNBtL-OUFiTYOPxDa9G3-24" value="" style="endArrow=classic;html=1;rounded=0;" edge="1" parent="1" source="LNBtL-OUFiTYOPxDa9G3-17" target="LNBtL-OUFiTYOPxDa9G3-20">
          <mxGeometry width="50" height="50" relative="1" as="geometry">
            <mxPoint x="3798" y="415" as="sourcePoint" />
            <mxPoint x="3843" y="434" as="targetPoint" />
          </mxGeometry>
        </mxCell>
        <mxCell id="LNBtL-OUFiTYOPxDa9G3-27" value="" style="endArrow=classic;html=1;rounded=0;" edge="1" parent="1" source="LNBtL-OUFiTYOPxDa9G3-20" target="LNBtL-OUFiTYOPxDa9G3-13">
          <mxGeometry width="50" height="50" relative="1" as="geometry">
            <mxPoint x="3950" y="486" as="sourcePoint" />
            <mxPoint x="4001" y="500" as="targetPoint" />
          </mxGeometry>
        </mxCell>
        <mxCell id="LNBtL-OUFiTYOPxDa9G3-28" value="" style="endArrow=classic;html=1;rounded=0;" edge="1" parent="1" source="LNBtL-OUFiTYOPxDa9G3-20" target="LNBtL-OUFiTYOPxDa9G3-3">
          <mxGeometry width="50" height="50" relative="1" as="geometry">
            <mxPoint x="3909" y="450" as="sourcePoint" />
            <mxPoint x="3960" y="464" as="targetPoint" />
          </mxGeometry>
        </mxCell>
        <mxCell id="LNBtL-OUFiTYOPxDa9G3-29" value="Wear" style="ellipse;whiteSpace=wrap;html=1;aspect=fixed;fillColor=#FFFFFF;strokeColor=#F19C99;strokeWidth=2;dashed=1;dashPattern=8 8;" vertex="1" parent="1">
          <mxGeometry x="3775" y="285" width="50" height="50" as="geometry" />
        </mxCell>
        <mxCell id="LNBtL-OUFiTYOPxDa9G3-31" value="" style="endArrow=classic;html=1;rounded=0;" edge="1" parent="1" source="LNBtL-OUFiTYOPxDa9G3-29" target="LNBtL-OUFiTYOPxDa9G3-11">
          <mxGeometry width="50" height="50" relative="1" as="geometry">
            <mxPoint x="3778" y="395" as="sourcePoint" />
            <mxPoint x="3823" y="414" as="targetPoint" />
          </mxGeometry>
        </mxCell>
      </root>
    </mxGraphModel>
  </diagram>
</mxfile>
